<svg id="Layer_1" data-name="Layer 1" xmlns="http://www.w3.org/2000/svg" viewBox="0 0 319.16 82.13"><defs><style>.cls-1{fill:#1b263b;}</style></defs><g id="Layer_2" data-name="Layer 2"><g id="Copy"><path class="cls-1" d="M275.4,80a11.57,11.57,0,0,1-1.53,1.35h26.91A14.52,14.52,0,0,1,294,69V49.51L282.15,70c-1.85,3.69-3.64,7-6.75,10M40.34,33.08C36.12,26.86,26.21,25.2,21,25.2,7,25.2,1.55,32.81,1.14,39.93c-.67,12,9.35,16.36,18.2,20.18,7.25,3.12,13.51,5.82,13.19,12-.3,5.18-4.87,8.4-12,8.4-5.85,0-10.35-2.18-12.23-4.35-1.39-1.5-.87-2.63.17-4.5a8.43,8.43,0,0,0,1.31-3.48,5,5,0,0,0-1.3-3.78,4.83,4.83,0,0,0-3.59-1.53,5.72,5.72,0,0,0-1.84.3,4.58,4.58,0,0,0-2.73,3,8.23,8.23,0,0,0,1.26,7c1,1.5,6.74,9,19.76,9,13.56,0,22.79-6,24.1-15.55C47.21,53.35,36,48.41,26.92,44.45c-6.49-2.85-12.09-5.3-12.09-9.92,0-4.83,3-7.49,8.36-7.49,4.24,0,8.09,1.3,10,3.37,1.32,1.48.86,2.6-.07,4.45A9.74,9.74,0,0,0,32,38.18a4.78,4.78,0,0,0,1.28,3.6A5.1,5.1,0,0,0,37,43.39a5,5,0,0,0,1.74-.32,4.61,4.61,0,0,0,2.9-3,8.17,8.17,0,0,0-1.27-7M65.5,9.55a9.18,9.18,0,0,0-18.35-.61c0,.21,0,.41,0,.61a9.18,9.18,0,1,0,18.35.61c0-.21,0-.41,0-.61M65.18,68.2V43.76c0-14.19,1.26-15.61,1.4-15.72l.33-.18V26.28H40.63v1.84h.65c5,0,6.2,2.1,6.2,11.2V68.09c0,9.19-1.16,11.3-6.2,11.3h-.65v1.84H72V79.39h-.64c-5,0-6.19-2.09-6.19-11.19M125.53,2.48l.34-.19V.72h-26V2.56h.65c5,0,6.12,2.07,6.12,11.06v9.92h.25l.73.09c1.22.14,2.45.34,3.65.6a40.22,40.22,0,0,1,5.14,1.49l.72.26.21.08A36.93,36.93,0,0,1,123.41,29l.74.46V18c0-14,1.25-15.44,1.38-15.55m40.1,40.18c-2,0-3.81-.07-5.5-.16a111,111,0,0,1-16.45-2c1.41-5.87,4.59-12.63,11.77-13h.66c5.66,0,8.86,5.11,9.52,15.19m-59,26.86a17.35,17.35,0,0,1-.06,1.79c-.08.18-.2.43-.35.72a14.45,14.45,0,0,1-5.74,5.28,18.1,18.1,0,0,1-2.56,1,7.89,7.89,0,0,1-2.31.35,8.33,8.33,0,0,1-7.37-4.6c-2.38-4.72-3.59-11.81-3.41-20,.22-14.52,2.9-21.78,9-24.27,1.69-.73,4.83-1.15,8.6-1.15,1.42,0,2.88.06,4.25.18Zm69.27-34.9c.42-.48.87-.94,1.33-1.38-4.28-4.87-11.06-7.52-19.82-7.52h-2c-9.52.42-18.4,4.36-23.86,10.57A74,74,0,0,1,123.93,32a19.35,19.35,0,0,0-1.68-1,35.59,35.59,0,0,0-5.73-2.77l-.2-.07-.68-.25a34.19,34.19,0,0,0-4.86-1.41c-1.13-.24-2.28-.43-3.43-.57l-.73-.08h0a35.61,35.61,0,0,0-4-.22c-.72,0-1.45,0-2.15.06A42.26,42.26,0,0,0,90.78,27c-9.69,2.47-22.66,8-23.49,26.93-.37,8.74,2,16,6.81,21,4.55,4.75,11,7.26,18.66,7.26a16.91,16.91,0,0,0,7.38-1.56,20.69,20.69,0,0,0,6.09-3.9c-.38,2.15-.84,2.53-1,2.6l-.39.17v1.61h26.08V79.28h-.65c-4.85,0-6-2-6.1-10.29V35.41c1.52.93,3.33,2,5.62,3.16a27.19,27.19,0,0,0-4.67,17.21A24.82,24.82,0,0,0,136.48,76c5.93,4,13.74,6.15,22,6.15.82,0,1.65,0,2.46-.07a38.08,38.08,0,0,0,18.2-6.14c-.68-.57-1.33-1.16-1.94-1.77-3.88,3.26-10.89,5.75-16.4,5.75-12.21-.11-17.5-12.7-18.38-24.45-.31-3.44.53-11,.54-11,0-.41.12-.81.18-1.21a115.09,115.09,0,0,0,16.86,2c1.8.09,3.72.15,5.71.17H170a26.37,26.37,0,0,1,5.85-10.86m47.9.7a14.44,14.44,0,0,0-3.51-4l-.08-.07a26.25,26.25,0,0,0-16.45-5.82c-.52,0-1,0-1.57.05C192,26,183.07,29.91,177.56,36.1c-4.57,5.15-6.66,11.63-6.2,19.28,1.32,19.39,17.88,26.31,32.93,26.31,1,0,2.08,0,3.11-.1a32.28,32.28,0,0,0,6.24-1.27c-.2-.19-.42-.37-.61-.56a11.5,11.5,0,0,1-1.17-1.44,20,20,0,0,1-5.2,1c-11.73-.11-16.85-12.59-17.72-24.24-1-13.27,3.25-27.12,13.32-27.9.46,0,.92-.05,1.38-.05,5.2,0,10.57,2.11,12.5,4.91,1.16,1.68.66,2.22-.43,3.41a8.53,8.53,0,0,0-2.11,3.3,5.6,5.6,0,0,0,.72,5.09A5.71,5.71,0,0,0,219,46.1a6.71,6.71,0,0,0,1.1-.09,5.28,5.28,0,0,0,4-2.94,8.73,8.73,0,0,0-.31-7.75m22.08,28.16-3.82,6.36a14.87,14.87,0,0,1-6.67,6.79,9.51,9.51,0,0,1-4.06,1.23,2.78,2.78,0,0,1-2.17-.88c-1.29-1.39-1.76-4.46-1.4-9.14.55-8.32,5.16-9.68,10-11.11.55-.16,1.1-.32,1.63-.49l.84-.25c1-.3,2.65-.77,5.61-1.73Zm72.18-33.56c-1.44-1.91-4-3-7.22-3h-1.08c-3.92.3-6.56.5-14.93,13,.23-9.08,1.07-10.37,1.33-10.54l.33-.19V27.73H270.56v1.83h.65c5,0,6.1,2,6.1,11V62a20,20,0,0,1-5.85,14.33c-1.75,1.72-2.86,2.17-3.48,2.25a8.39,8.39,0,0,1-1,.06,2.77,2.77,0,0,1-3-2.09c-.54-1.56-.65-4-.65-7.36v-25a17.36,17.36,0,0,0-1.57-8.13,14.13,14.13,0,0,0-1.23-1.91c-2.22-2.88-10.65-8.84-22.56-8.84h-1.19a36.51,36.51,0,0,0-15.31,4l.14.11.08.07a16,16,0,0,1,1.4,1.27,22,22,0,0,1,8.79-1.93,14.36,14.36,0,0,1,10.87,4.36,13.92,13.92,0,0,1,3.1,9.46v8.57c-3.71,1.24-7.47,2.39-11.18,3.45-2.44.69-4.6,1.26-6.51,1.77-7.9,2.1-11.86,3.15-14.27,7a14.68,14.68,0,0,0-2,6.73,10.43,10.43,0,0,0,2.76,8c2.48,2.57,6.61,4,11.63,4A27.3,27.3,0,0,0,234,81.06c3.87-1.11,7-3.78,9.31-7.93l2.53-4.26a15,15,0,0,0,.18,1.64v.26c.07.38.13.76.21,1.14.71,3.07,3.84,10.21,17.63,10.21.72,0,1.44,0,2.13-.07h.39c1.48-.06,3.72-.17,7.4-3.69,2.88-2.74,4.51-5.76,6.32-9.39l14.57-25.11c2.56-4.25,7.37-11.19,9.41-11.74a3,3,0,0,1,.73-.12c.68,0,.89.44,1.34,2.06a8.14,8.14,0,0,0,3.09,5.08,6.68,6.68,0,0,0,3.54.93c2.4,0,5.26-1.11,6.06-4.22A6.53,6.53,0,0,0,318,30" transform="translate(-0.02 -0.07)"/></g></g></svg>