<svg xmlns="http://www.w3.org/2000/svg" viewBox="0 0 383.42 169"><defs><style>.cls-1{fill:#eeedee;}</style></defs><g id="Layer_2" data-name="Layer 2"><g id="Layering"><path class="cls-1" d="M66.49,22.48a10.59,10.59,0,0,0,10.39-10.8,10.34,10.34,0,1,0-20.66,0C56.22,17.61,60.83,22.48,66.49,22.48Z"/><path class="cls-1" d="M372.87,31.82c-4.86.37-7.89.5-19.08,17.71.15-10.89.92-15.52,2.07-16.17v-.64H326v.64c7,0,8.18,3.51,8.18,14.15V73.45a25,25,0,0,1-7.33,17.93c-1.61,1.58-3.25,2.76-4.66,2.94-5.93.75-6.51-3.33-6.51-12.16V51.92c0-5-.9-7.77-1.81-9.48a17.94,17.94,0,0,0-1.42-2.2c-3-3.9-13.84-10.86-28.12-10.38a43.84,43.84,0,0,0-18.59,5c.25.18.49.38.72.57,9.85-4.75,20.33-3.32,25.66,2.72,3.68,4.17,4,9.5,4,12V61.05C290.32,63,285.47,64.42,282,65.41c-15.12,4.29-21.3,4.83-24.72,10.28a17,17,0,0,0-2.34,7.77c-.52,14.15,16.1,15.32,25.83,12.33,4.86-1.39,8.37-4.84,10.82-9.25l4.53-7.63v2.6a12.48,12.48,0,0,0,.21,2.12c.09.55.17,1.11.29,1.65C299.05,95.94,312.3,97.47,319.71,97c1.78-.13,4.29.17,9-4.28,3.32-3.17,5.27-6.7,7.52-11.22L353.84,51S362,37.46,365.7,36.46c4.7-1.33,2,5.25,6.88,8.6,2.95,1.88,9.19,1.36,10.47-3.55C384.73,35.71,380.54,31.33,372.87,31.82ZM296.09,75.47q-2.35,3.93-4.73,7.86A19,19,0,0,1,283,91.89c-7.92,4-11.3.39-10.39-11.42s8.26-12.72,14.69-14.75c1-.31,3.13-.87,8.84-2.73Z"/><path class="cls-1" d="M353.65,81.91v-27s-20.6,36-21.06,36.6c-3.71,5-6.58,5.37-6.58,5.37h35.82A17.6,17.6,0,0,1,353.65,81.91Z"/><path class="cls-1" d="M255.21,93.72a28.28,28.28,0,0,1-7.42,1.5c-14.27-.13-21.08-14.52-22.25-30.1S229,31.5,242.41,30.46c7.53-.52,14.93,2.47,17.52,6.23,2.86,4.16-1.55,4.42-3,8.83s1.95,8.57,7,7.79,6.36-7.14,3.89-11.81-12.33-12.34-25.44-11.56c-18,1-38,11.56-36.6,35.44,1.69,24.79,24.27,32.19,42.83,31a39.23,39.23,0,0,0,7.78-1.62C256.25,94.66,255.37,93.86,255.21,93.72Z"/><path class="cls-1" d="M84.78,95.31c-7.11,0-8.29-3.69-8.29-14.35V51.36c0-13.28.92-19.08,2.1-19.74V31H48.33v.65c7.11,0,8.29,3.69,8.29,14.35V80.84c0,10.65-1.18,14.47-8.29,14.47V96H84.78Z"/><path class="cls-1" d="M3.23,75.57c-3.42,1.19-4.47,6.71-1.45,11.05,2.5,3.69,9.87,10.53,23.29,10.53,15.65,0,26.84-6.58,28.42-18.15,3.56-26.72-37.1-24.22-37.1-38.83,0-6.44,4.21-9.86,10.92-9.86,5.66,0,10.39,1.84,12.76,4.35,3.15,3.55-.92,6.18-1.32,10a5.24,5.24,0,0,0,7.11,5.13c3.81-1.31,4.47-6.57,1.58-10.92-2.51-3.69-10-9.2-22.77-9.2-12.1,0-22.62,5.38-23.28,17.1-1.45,25.66,38.94,21.31,38,38.94-.4,7-6.71,10.92-15.26,10.92-7.11,0-12.9-2.63-15.4-5.53-3.42-3.67,1.32-6.44,1.58-10.25C10.6,77.28,7.44,74.25,3.23,75.57Z"/><path class="cls-1" d="M127.38,14.84v13.3c1.4.16,2.88.4,4.41.73A45.45,45.45,0,0,1,147,35.29V20.18C147,7,148,1.3,149.12.65V0H119.17V.65C126.2.65,127.38,4.3,127.38,14.84Z"/><path class="cls-1" d="M147.06,81.93h0V39.81a89.07,89.07,0,0,0,8.71,4.93l.07,0c-4.06,5.45-6.44,12.46-6,21.11,1,23.31,24,32.16,42.57,31.12,9.51-.52,17.16-4.46,22.11-7.59l-1.12-1.25C208.9,92.33,199.89,96,192.21,96c-14.71-.13-21.87-14.71-23-30.33-.39-4.3.65-13.54.65-13.54.11-.78.23-1.54.37-2.3l.31.07a137.43,137.43,0,0,0,20.79,2.56c2.55.13,5.12.2,7.67.21v0h6.71A30,30,0,0,1,212,41.55l.86-.9C207.46,33.33,198,29.79,185.7,30.34c-10.69.46-21.76,4.71-28.74,13l-.42-.2a93,93,0,0,1-9.4-5.38c-.74-.47-1.4-.89-2-1.26a42,42,0,0,0-6.82-3.29l-.24-.09-.81-.29a42.31,42.31,0,0,0-5.79-1.68c-1.41-.31-2.78-.52-4.09-.68h0l-.31,0a44.49,44.49,0,0,0-7.93-.24,50.29,50.29,0,0,0-11.54,1.56c-13.81,3.51-27,11.06-27.87,31.9-.91,21.48,12,33.46,30.08,33.46a19.89,19.89,0,0,0,8.64-1.83,24.71,24.71,0,0,0,7.79-5.19l1-.85c-.44,4.16-1.19,5.58-2,5.92v.65h30v-.65C148.43,95.18,147.13,91.74,147.06,81.93ZM185.7,30.86c9.65-.63,12.66,9.35,13.23,20-2.51,0-5-.07-7.55-.2a135.07,135.07,0,0,1-20.5-2.52l-.34-.08C172.61,38.67,177.26,31.31,185.7,30.86ZM127.37,82.59c0,.8,0,1.58-.07,2.32-.11.24-.28.62-.52,1.07a18.13,18.13,0,0,1-7.28,6.72A21.28,21.28,0,0,1,116.33,94l-.07,0a10.75,10.75,0,0,1-12.66-5.54c-2.94-5.84-4.44-14.65-4.22-24.56.26-16.67,3.13-26.74,11.33-30.12,3.65-1.56,11.2-1.69,16.66-1.17Z"/><path class="cls-1" d="M103.06,161.77c0-3-.64-4.1-2.08-4.61,1.31-.47,2.28-1.78,2.28-4.74v-1.08c0-3.63-1.58-5.11-4.94-5.11H94.59V168.7h2.15V158.1h1.55c2.25,0,2.69.88,2.69,3.84a50.23,50.23,0,0,0,.23,6.76h2.09A55.93,55.93,0,0,1,103.06,161.77Zm-4.71-5.52H96.74v-8.17h1.45c2.32,0,2.92,1.25,2.92,3.4v1C101.11,154.91,100.57,156.25,98.35,156.25Z"/><polygon class="cls-1" points="19.35 157.67 24.39 157.67 24.39 155.72 19.35 155.72 19.35 148.22 24.7 148.22 24.7 146.23 17.2 146.23 17.2 168.7 24.76 168.7 25.07 166.75 19.35 166.75 19.35 157.67"/><rect class="cls-1" x="111.66" y="146.23" width="2.15" height="22.46"/><path class="cls-1" d="M37.4,155.65c-2.09-1.58-2.53-2.35-2.53-4.57,0-1.82.44-3.27,2.05-3.27s2,1.28,2,3.2V152h2.15v-1c0-2.92-.94-5-4.1-5-3.39,0-4.24,2.66-4.24,5.48,0,3.3,1.18,4.41,3.6,6.29s2.93,2.89,2.93,5.58-.71,3.84-2.36,3.84-2.42-1.18-2.42-3.4v-1.28H32.35v1.28c0,3,1,5.28,4.54,5.28,3.7,0,4.54-2.86,4.54-6C41.43,159.28,40.46,158,37.4,155.65Z"/><path class="cls-1" d="M6.32,156.66c1.18-.41,2.09-1.38,2.09-4.54v-1c0-3-1.25-4.85-4.64-4.85H0V168.7H3.8c3.8,0,5.08-1.92,5.08-5.89v-1.65C8.88,158.17,7.6,157.06,6.32,156.66Zm-4.2-8.58H3.6c2,0,2.76,1,2.76,3.13v1c0,2.69-.61,3.57-2.63,3.57H2.12Zm4.64,14.7c0,2.89-.64,4.1-3.13,4.1H2.12v-9.25H3.67c2.15,0,3.09,1.08,3.09,3.6Z"/><polygon class="cls-1" points="48.54 148.22 52.21 148.22 52.21 168.7 54.33 168.7 54.33 148.22 57.96 148.22 57.96 146.23 48.54 146.23 48.54 148.22"/><path class="cls-1" d="M129.93,154.64c0,3.67,0,6.83.17,9.89H130a39.21,39.21,0,0,0-.91-4l-4-14.33h-2.59V168.7h2v-8.44c0-4.07-.06-7.81-.2-10.5h0c.1.61.27,1.48.57,2.63l4.47,16.31H132V146.23h-2Z"/><path class="cls-1" d="M80.79,146.23H76.86V168.7h3.73c5,0,5.55-3.53,5.55-7v-8.91C86.14,149.36,85.64,146.23,80.79,146.23ZM84,162.17c0,3.1-.7,4.64-3.53,4.64H79V148.12h1.45c3,0,3.49,1.64,3.49,4.37Z"/><path class="cls-1" d="M211.79,161.77c0-3-.64-4.1-2.08-4.61,1.31-.47,2.28-1.78,2.28-4.74v-1.08c0-3.63-1.58-5.11-4.94-5.11h-3.73V168.7h2.15V158.1H207c2.25,0,2.69.88,2.69,3.84a50.23,50.23,0,0,0,.23,6.76H212A55.93,55.93,0,0,1,211.79,161.77Zm-4.71-5.52h-1.61v-8.17h1.44c2.32,0,2.93,1.25,2.93,3.4v1C209.84,154.91,209.3,156.25,207.08,156.25Z"/><path class="cls-1" d="M223.5,146.23l-3.7,22.47H222l1.15-7.43H227l1.21,7.43h2.26l-3.87-22.47Zm-.1,13.05c.64-4.27,1.48-9.38,1.55-11.1h.1c.2,2,.77,5.89,1.64,11.1Z"/><path class="cls-1" d="M278.88,155.65c-2.08-1.58-2.52-2.35-2.52-4.57,0-1.82.44-3.27,2.05-3.27s2,1.28,2,3.2V152h2.15v-1c0-2.92-.94-5-4.1-5-3.4,0-4.24,2.66-4.24,5.48,0,3.3,1.18,4.41,3.6,6.29s2.93,2.89,2.93,5.58-.71,3.84-2.36,3.84-2.42-1.18-2.42-3.4v-1.28h-2.15v1.28c0,3,1,5.28,4.54,5.28,3.7,0,4.54-2.86,4.54-6C282.92,159.28,281.94,158,278.88,155.65Z"/><path class="cls-1" d="M245.9,154.64c0,3.67,0,6.83.17,9.89H246a38.55,38.55,0,0,0-.9-4l-4-14.33h-2.58V168.7h2.05v-8.44c0-4.07-.07-7.81-.21-10.5h0c.1.61.27,1.48.57,2.63l4.47,16.31h2.49V146.23h-2Z"/><path class="cls-1" d="M260.61,146.23h-3.93V168.7h3.73c5,0,5.55-3.53,5.55-7v-8.91C266,149.36,265.46,146.23,260.61,146.23Zm3.16,15.94c0,3.1-.7,4.64-3.53,4.64h-1.41V148.12h1.45c3,0,3.49,1.64,3.49,4.37Z"/><path class="cls-1" d="M192.44,156.66c1.18-.41,2.09-1.38,2.09-4.54v-1c0-3-1.25-4.85-4.65-4.85h-3.76V168.7h3.8c3.8,0,5.08-1.92,5.08-5.89v-1.65C195,158.17,193.72,157.06,192.44,156.66Zm-4.2-8.58h1.48c2,0,2.75,1,2.75,3.13v1c0,2.69-.6,3.57-2.62,3.57h-1.61Zm4.64,14.7c0,2.89-.64,4.1-3.13,4.1h-1.51v-9.25h1.54c2.16,0,3.1,1.08,3.1,3.6Z"/><path class="cls-1" d="M150.19,146.23h-2.32c-1.51,3.37-4,8.91-5,11h0v-11h-2.11V168.7h2.11v-8.11l1.62-3.16,3.87,11.27h2.32l-4.78-13.52Z"/><path class="cls-1" d="M162.28,155.65c-2.09-1.58-2.53-2.35-2.53-4.57,0-1.82.44-3.27,2.05-3.27s2,1.28,2,3.2V152H166v-1c0-2.92-.94-5-4.1-5-3.39,0-4.24,2.66-4.24,5.48,0,3.3,1.18,4.41,3.6,6.29s2.93,2.89,2.93,5.58-.71,3.84-2.36,3.84-2.42-1.18-2.42-3.4v-1.28h-2.15v1.28c0,3,1,5.28,4.54,5.28,3.7,0,4.54-2.86,4.54-6C166.31,159.28,165.34,158,162.28,155.65Z"/><polygon class="cls-1" points="311.75 115.93 309.6 115.93 309.6 138.4 317.13 138.4 317.4 136.48 311.75 136.48 311.75 115.93"/><path class="cls-1" d="M342.5,122.29h1.68a26.82,26.82,0,0,0,1.18-7.37h-2A32.36,32.36,0,0,1,342.5,122.29Z"/><path class="cls-1" d="M18.81,115.93l-3.7,22.47h2.15L18.4,131h3.87l1.21,7.44h2.25l-3.86-22.47Zm-.11,13c.64-4.27,1.48-9.38,1.55-11.1h.1c.2,2,.78,5.89,1.65,11.1Z"/><path class="cls-1" d="M357.6,125.35c-2.08-1.58-2.52-2.36-2.52-4.58,0-1.81.44-3.26,2.05-3.26s2,1.28,2,3.2v.94h2.15v-1c0-2.93-.94-5-4.1-5-3.4,0-4.24,2.66-4.24,5.48,0,3.3,1.18,4.41,3.6,6.29s2.92,2.89,2.92,5.58-.7,3.83-2.35,3.83-2.42-1.17-2.42-3.39v-1.28h-2.15v1.28c0,3,1,5.28,4.54,5.28,3.7,0,4.54-2.86,4.54-6C361.64,129,360.66,127.7,357.6,125.35Z"/><path class="cls-1" d="M262.55,134.73h-.1c-.23-3.83-1.88-13.38-2.66-18.8h-2.21c-.81,5.42-2.46,15.54-2.73,18.9h0c-.2-3.4-1.41-13.28-2.15-18.9h-2.29l3.13,22.47h2.35c.84-5.28,2.25-14.5,2.72-18.37h0c.37,3.5,1.88,13.05,2.62,18.37h2.39l3.43-22.47h-2.22C264.13,121.51,262.79,131,262.55,134.73Z"/><path class="cls-1" d="M329.18,115.93h-3.93V138.4H329c5,0,5.55-3.54,5.55-7v-8.91C334.53,119.06,334,115.93,329.18,115.93Zm3.16,15.94c0,3.1-.7,4.64-3.53,4.64H327.4v-18.7h1.45c3,0,3.49,1.65,3.49,4.38Z"/><path class="cls-1" d="M2.15,128.34H3.77c4,0,5-2.52,5-5.82v-1.38c0-3.53-1.54-5.21-4.84-5.21H0V138.4H2.15Zm0-10.56H3.77c2.38,0,2.82,1.65,2.82,3.5v1.21c0,2.39-.37,4-3,4H2.15Z"/><path class="cls-1" d="M301,131.47c0-3-.64-4.11-2.08-4.61,1.31-.47,2.28-1.78,2.28-4.74V121c0-3.63-1.58-5.11-4.94-5.11h-3.73V138.4h2.15V127.8h1.55c2.25,0,2.69.88,2.69,3.84a50.23,50.23,0,0,0,.23,6.76h2.09A56,56,0,0,1,301,131.47ZM296.29,126h-1.61v-8.17h1.44c2.32,0,2.93,1.24,2.93,3.4v1C299.05,124.61,298.51,126,296.29,126Z"/><path class="cls-1" d="M279.38,115.63c-3.12,0-4.77,2-4.77,5.72v11.53c0,3.57,1.18,5.82,4.64,5.82,3.23,0,4.81-2,4.81-5.85v-11.5C284.06,118,282.68,115.63,279.38,115.63Zm2.49,17.28c0,2.83-.87,3.84-2.52,3.84s-2.56-1-2.56-3.74V121.28c0-2.56.81-3.7,2.53-3.7s2.55,1.21,2.55,3.73Z"/><polygon class="cls-1" points="226.5 127.36 231.55 127.36 231.55 125.42 226.5 125.42 226.5 117.92 231.85 117.92 231.85 115.93 224.35 115.93 224.35 138.4 231.92 138.4 232.22 136.44 226.5 136.44 226.5 127.36"/><polygon class="cls-1" points="189.19 117.92 192.86 117.92 192.86 138.4 194.98 138.4 194.98 117.92 198.61 117.92 198.61 115.93 189.19 115.93 189.19 117.92"/><polygon class="cls-1" points="87.38 127.36 92.43 127.36 92.43 125.42 87.38 125.42 87.38 117.92 92.73 117.92 92.73 115.93 85.23 115.93 85.23 138.4 92.8 138.4 93.1 136.44 87.38 136.44 87.38 127.36"/><path class="cls-1" d="M166.13,115.63c-3.13,0-4.78,2-4.78,5.72v11.53c0,3.57,1.18,5.82,4.64,5.82,3.23,0,4.81-2,4.81-5.85v-11.5C170.8,118,169.42,115.63,166.13,115.63Zm2.48,17.28c0,2.83-.87,3.84-2.52,3.84s-2.55-1-2.55-3.74V121.28c0-2.56.8-3.7,2.52-3.7s2.55,1.21,2.55,3.73Z"/><path class="cls-1" d="M109.61,131.47c0-3-.64-4.11-2.09-4.61,1.31-.47,2.29-1.78,2.29-4.74V121c0-3.63-1.58-5.11-5-5.11h-3.73V138.4h2.15V127.8h1.55c2.25,0,2.69.88,2.69,3.84a48.61,48.61,0,0,0,.24,6.76h2.08A56.13,56.13,0,0,1,109.61,131.47ZM104.9,126h-1.62v-8.17h1.45c2.32,0,2.93,1.24,2.93,3.4v1C107.66,124.61,107.12,126,104.9,126Z"/><polygon class="cls-1" points="144.6 117.92 148.27 117.92 148.27 138.4 150.39 138.4 150.39 117.92 154.02 117.92 154.02 115.93 144.6 115.93 144.6 117.92"/><path class="cls-1" d="M42.28,131.47c0-3-.63-4.11-2.08-4.61,1.31-.47,2.29-1.78,2.29-4.74V121c0-3.63-1.58-5.11-5-5.11H33.81V138.4H36V127.8h1.55c2.25,0,2.69.88,2.69,3.84a50.23,50.23,0,0,0,.23,6.76h2.09A56,56,0,0,1,42.28,131.47ZM37.58,126H36v-8.17h1.45c2.32,0,2.92,1.24,2.92,3.4v1C40.33,124.61,39.8,126,37.58,126Z"/><polygon class="cls-1" points="213.49 125.35 208.58 125.35 208.58 115.93 206.43 115.93 206.43 138.4 208.58 138.4 208.58 127.3 213.49 127.3 213.49 138.4 215.61 138.4 215.61 115.93 213.49 115.93 213.49 125.35"/><path class="cls-1" d="M74.46,124.34c0,3.66,0,6.83.17,9.89h-.07c-.17-.88-.41-2.22-.91-4l-4-14.33H67.06V138.4h2V130c0-4.06-.07-7.8-.2-10.49h0c.1.61.27,1.48.57,2.63L74,138.4h2.49V115.93h-2Z"/><path class="cls-1" d="M126.61,132.68c0-3.7-1-5-4-7.33-2.09-1.58-2.53-2.36-2.53-4.58,0-1.81.44-3.26,2.06-3.26s2,1.28,2,3.2v.94h2.16v-1c0-2.93-1-5-4.11-5-3.39,0-4.23,2.66-4.23,5.48,0,3.3,1.17,4.41,3.59,6.29s2.93,2.89,2.93,5.58-.71,3.83-2.35,3.83-2.43-1.17-2.43-3.39v-1.28h-2.15v1.28c0,3,1,5.28,4.54,5.28C125.77,138.7,126.61,135.84,126.61,132.68Z"/><polygon class="cls-1" points="49.83 117.92 53.49 117.92 53.49 138.4 55.61 138.4 55.61 117.92 59.24 117.92 59.24 115.93 49.83 115.93 49.83 117.92"/></g></g></svg>